<svg width="960" height="760" viewBox="0 0 960 760" fill="none" xmlns="http://www.w3.org/2000/svg">
  <rect width="960" height="760" rx="40" fill="url(#paint0_linear)"/>
  <rect x="573" y="0" width="18" height="760" fill="#2A4A63" fill-opacity="0.14"/>
  <rect x="710" y="0" width="18" height="760" fill="#2A4A63" fill-opacity="0.14"/>
  <rect x="0" y="156" width="960" height="12" fill="#2A4A63" fill-opacity="0.12"/>
  <rect x="0" y="328" width="960" height="12" fill="#2A4A63" fill-opacity="0.12"/>
  <rect x="0" y="500" width="960" height="12" fill="#2A4A63" fill-opacity="0.12"/>
  <path d="M605 85L870 85" stroke="#C8D5E0" stroke-width="5" stroke-linecap="round"/>
  <path d="M605 256L870 256" stroke="#C8D5E0" stroke-width="5" stroke-linecap="round"/>
  <path d="M605 428L870 428" stroke="#C8D5E0" stroke-width="5" stroke-linecap="round"/>
  <path d="M605 600L870 600" stroke="#C8D5E0" stroke-width="5" stroke-linecap="round"/>
  <circle cx="300" cy="292" r="64" fill="#8A5A34"/>
  <path d="M232 293C232 255.444 262.444 225 300 225C337.556 225 368 255.444 368 293V327H232V293Z" fill="#6D4425"/>
  <path d="M236 245C250.644 214.871 272.574 200 302 200C331.426 200 352.395 215.091 365 245L348 264H255L236 245Z" fill="#FFB32C"/>
  <rect x="253" y="244" width="96" height="25" rx="8" fill="#FFCF54"/>
  <rect x="243" y="266" width="116" height="10" rx="5" fill="#E38B00"/>
  <path d="M214 707V512C214 453.458 261.458 406 320 406H364C422.542 406 470 453.458 470 512V707H214Z" fill="#E0A244"/>
  <path d="M260 707V486C260 461.699 279.699 442 304 442H338C362.301 442 382 461.699 382 486V707H260Z" fill="#F5EBDD"/>
  <path d="M382 442L470 523V707H382V442Z" fill="#B24A2E"/>
  <path d="M214 523L282 470L333 542L279 707H214V523Z" fill="#305C7D"/>
  <path d="M470 527L417 555L391 707H470V527Z" fill="#D8922D"/>
  <circle cx="522" cy="270" r="60" fill="#A56C3C"/>
  <path d="M458 271C458 235.654 486.654 207 522 207C557.346 207 586 235.654 586 271V301H458V271Z" fill="#7B4F2C"/>
  <path d="M458 227C472.134 198.044 493.79 184 522.968 184C552.147 184 573.238 198.176 586 227L569 246H477L458 227Z" fill="#FFB32C"/>
  <rect x="477" y="226" width="92" height="24" rx="8" fill="#FFD35C"/>
  <rect x="467" y="248" width="112" height="10" rx="5" fill="#E38B00"/>
  <path d="M438 707V480C438 428.085 480.085 386 532 386H578C629.915 386 672 428.085 672 480V707H438Z" fill="#D19D47"/>
  <path d="M496 707V476C496 455.013 513.013 438 534 438H563C583.987 438 601 455.013 601 476V707H496Z" fill="#7D2E1D"/>
  <path d="M438 527L506 480L548 548L518 707H438V527Z" fill="#DFBB93"/>
  <path d="M601 447L672 513V707H601V447Z" fill="#4F83A6"/>
  <path d="M551 446L765 301" stroke="#8A5A34" stroke-width="18" stroke-linecap="round"/>
  <path d="M747 279L792 254" stroke="#8A5A34" stroke-width="20" stroke-linecap="round"/>
  <circle cx="794" cy="255" r="18" fill="#FFC247"/>
  <path d="M150 707H847" stroke="#CFC2AF" stroke-width="18" stroke-linecap="round"/>
  <defs>
    <linearGradient id="paint0_linear" x1="63" y1="38" x2="840" y2="695" gradientUnits="userSpaceOnUse">
      <stop stop-color="#FFF6E8"/>
      <stop offset="1" stop-color="#E7EEF4"/>
    </linearGradient>
  </defs>
</svg>
